<mxfile host="app.diagrams.net" agent="Mozilla/5.0 (Windows NT 10.0; Win64; x64) AppleWebKit/537.36 (KHTML, like Gecko) Chrome/135.0.0.0 Safari/537.36" version="26.0.14">
  <diagram name="Page-1" id="8wZgJKjKrU__mTuU6S4J">
    <mxGraphModel dx="733" dy="412" grid="1" gridSize="10" guides="1" tooltips="1" connect="1" arrows="1" fold="1" page="1" pageScale="1" pageWidth="850" pageHeight="1100" math="0" shadow="0">
      <root>
        <mxCell id="0" />
        <mxCell id="1" parent="0" />
        <mxCell id="8qEUcD1uiPGlTy2jwRuW-1" value="" style="rounded=0;whiteSpace=wrap;html=1;" parent="1" vertex="1">
          <mxGeometry x="280" y="160" width="250" height="400" as="geometry" />
        </mxCell>
        <mxCell id="8qEUcD1uiPGlTy2jwRuW-3" value="Skills" style="rounded=0;whiteSpace=wrap;html=1;" parent="1" vertex="1">
          <mxGeometry x="345" y="170" width="120" height="50" as="geometry" />
        </mxCell>
        <mxCell id="8qEUcD1uiPGlTy2jwRuW-4" value="Back-End&amp;nbsp;" style="rounded=0;whiteSpace=wrap;html=1;" parent="1" vertex="1">
          <mxGeometry x="365" y="270" width="80" height="30" as="geometry" />
        </mxCell>
        <mxCell id="8qEUcD1uiPGlTy2jwRuW-5" value="Front End" style="rounded=0;whiteSpace=wrap;html=1;" parent="1" vertex="1">
          <mxGeometry x="365" y="370" width="80" height="30" as="geometry" />
        </mxCell>
        <mxCell id="8qEUcD1uiPGlTy2jwRuW-6" value="General" style="rounded=0;whiteSpace=wrap;html=1;" parent="1" vertex="1">
          <mxGeometry x="365" y="470" width="80" height="30" as="geometry" />
        </mxCell>
        <mxCell id="GoiQTDRKkJal-jOKLqsW-1" value="" style="rounded=0;whiteSpace=wrap;html=1;" parent="1" vertex="1">
          <mxGeometry x="680" y="210" width="210" height="420" as="geometry" />
        </mxCell>
        <mxCell id="GoiQTDRKkJal-jOKLqsW-2" value="" style="rounded=0;whiteSpace=wrap;html=1;" parent="1" vertex="1">
          <mxGeometry x="690" y="300" width="190" height="320" as="geometry" />
        </mxCell>
        <mxCell id="GoiQTDRKkJal-jOKLqsW-3" value="theme settings&lt;div&gt;&lt;br&gt;&lt;/div&gt;" style="rounded=0;whiteSpace=wrap;html=1;" parent="1" vertex="1">
          <mxGeometry x="730" y="310" width="120" height="30" as="geometry" />
        </mxCell>
        <mxCell id="GoiQTDRKkJal-jOKLqsW-5" value="White" style="rounded=0;whiteSpace=wrap;html=1;" parent="1" vertex="1">
          <mxGeometry x="700" y="380" width="90" height="30" as="geometry" />
        </mxCell>
        <mxCell id="GoiQTDRKkJal-jOKLqsW-6" value="Black" style="rounded=0;whiteSpace=wrap;html=1;fillColor=light-dark(#0050EF,#FFFFFF);fontColor=#ffffff;strokeColor=#001DBC;" parent="1" vertex="1">
          <mxGeometry x="790" y="380" width="80" height="30" as="geometry" />
        </mxCell>
        <mxCell id="kY4nXy9lkfmoU8iHETZc-1" value="" style="rounded=0;whiteSpace=wrap;html=1;" parent="1" vertex="1">
          <mxGeometry x="705" y="490" width="160" height="60" as="geometry" />
        </mxCell>
        <mxCell id="v3IdM-Kf5lxkKKUZw_pt-1" value="" style="rounded=0;whiteSpace=wrap;html=1;" vertex="1" parent="1">
          <mxGeometry x="1040" y="220" width="210" height="420" as="geometry" />
        </mxCell>
        <mxCell id="v3IdM-Kf5lxkKKUZw_pt-2" value="" style="rounded=0;whiteSpace=wrap;html=1;" vertex="1" parent="1">
          <mxGeometry x="1050" y="310" width="190" height="320" as="geometry" />
        </mxCell>
        <mxCell id="v3IdM-Kf5lxkKKUZw_pt-3" value="theme settings&lt;div&gt;&lt;br&gt;&lt;/div&gt;" style="rounded=0;whiteSpace=wrap;html=1;" vertex="1" parent="1">
          <mxGeometry x="1090" y="320" width="120" height="30" as="geometry" />
        </mxCell>
        <mxCell id="v3IdM-Kf5lxkKKUZw_pt-7" value="Front-End/Static Website/2024" style="rounded=0;whiteSpace=wrap;html=1;fontSize=8;align=left;" vertex="1" parent="1">
          <mxGeometry x="1060" y="386" width="170" height="14" as="geometry" />
        </mxCell>
        <mxCell id="v3IdM-Kf5lxkKKUZw_pt-8" value="Front-End/Static Website/2024" style="rounded=0;whiteSpace=wrap;html=1;fontSize=8;align=left;" vertex="1" parent="1">
          <mxGeometry x="1060" y="412.5" width="170" height="15" as="geometry" />
        </mxCell>
        <mxCell id="v3IdM-Kf5lxkKKUZw_pt-9" value="Front-End/Static Website/2024" style="rounded=0;whiteSpace=wrap;html=1;fontSize=8;align=left;" vertex="1" parent="1">
          <mxGeometry x="1060" y="440" width="170" height="14" as="geometry" />
        </mxCell>
      </root>
    </mxGraphModel>
  </diagram>
</mxfile>
